<?xml version="1.0" encoding="utf-8"?>
<!-- Generator: Adobe Illustrator 24.0.2, SVG Export Plug-In . SVG Version: 6.00 Build 0)  -->
<svg version="1.1" id="Layer_1" xmlns="http://www.w3.org/2000/svg" xmlns:xlink="http://www.w3.org/1999/xlink" x="0px" y="0px"
	 viewBox="0 0 4 4" style="enable-background:new 0 0 4 4;" xml:space="preserve">
<style type="text/css">
	.st0{fill:#FFFFFF;}
</style>
<g>
	<g>
		<path class="st0" d="M2,0.1c1,0,1.9,0.8,1.9,1.9c0,1-0.8,1.8-1.7,1.9c-0.1,0-0.1,0-0.2,0c-0.1,0-0.3,0-0.4,0
			C0.8,3.7,0.1,2.9,0.1,2C0.1,1,1,0.1,2,0.1 M2,0C0.9,0,0,0.9,0,2c0,0.9,0.7,1.8,1.6,2C1.7,4,1.9,4,2,4c0.1,0,0.1,0,0.2,0
			C3.2,3.9,4,3,4,2C4,0.9,3.1,0,2,0L2,0z"/>
	</g>
	<g>
		<path class="st0" d="M2.2,1.6c0,0,0.1-0.1,0.2-0.1c0.1,0,0.2,0,0.3,0l0.1-0.4c-0.2,0-0.4,0-0.5,0c-0.2,0-0.3,0-0.4,0.1
			C1.8,1.3,1.7,1.3,1.7,1.4S1.6,1.6,1.6,1.8V2H1.3v0.5h0.3v1.4c0.1,0,0.3,0,0.4,0s0.1,0,0.2,0V2.4h0.4V2H2.2V1.8
			C2.2,1.7,2.2,1.7,2.2,1.6z"/>
	</g>
</g>
</svg>
