<?xml version="1.0" encoding="utf-8"?>
<!-- Generator: Adobe Illustrator 24.0.2, SVG Export Plug-In . SVG Version: 6.00 Build 0)  -->
<svg version="1.1" id="Layer_1" xmlns="http://www.w3.org/2000/svg" xmlns:xlink="http://www.w3.org/1999/xlink" x="0px" y="0px"
	 viewBox="0 0 4 4" style="enable-background:new 0 0 4 4;" xml:space="preserve">
<style type="text/css">
	.st0{fill:#FFFFFF;}
	.st1{fill-rule:evenodd;clip-rule:evenodd;fill:#FFFFFF;}
</style>
<g>
	<g>
		<path class="st0" d="M2,0.1C3,0.1,3.9,1,3.9,2S3,3.9,2,3.9S0.1,3,0.1,2S1,0.1,2,0.1 M2,0C0.9,0,0,0.9,0,2s0.9,2,2,2s2-0.9,2-2
			S3.1,0,2,0L2,0z"/>
	</g>
	<g>
		<path class="st1" d="M2.7,1c-0.5,0-1,0-1.5,0C1.1,1,1,1.1,1,1.3S1,1.8,1,2s0,0.5,0,0.7S1.1,3,1.2,3c0.5,0,1,0,1.5,0
			C2.9,3,3,2.9,3,2.7c0-0.5,0-1,0-1.5C3,1.1,2.9,1,2.7,1z M2.6,1.2c0.2,0,0.2,0,0.2,0.2s0,0.2-0.2,0.2s-0.2,0-0.2-0.2
			C2.4,1.2,2.4,1.2,2.6,1.2z M2,1.6c0.2,0,0.4,0.2,0.4,0.4S2.2,2.4,2,2.4S1.6,2.2,1.6,2S1.8,1.6,2,1.6z M2.8,2.7
			C2.8,2.8,2.8,2.8,2.8,2.7C2.5,2.8,2.3,2.8,2,2.8c-0.2,0-0.4,0-0.7,0c-0.1,0-0.1,0-0.1-0.1c0-0.2,0-0.5,0-0.7c0-0.1,0-0.1,0.1-0.1
			s0.1,0,0.1,0.1c0,0.3,0.2,0.6,0.5,0.7c0.3,0.1,0.6-0.1,0.7-0.4c0-0.1,0-0.2,0-0.3l0,0c0.1,0,0.1,0,0.1,0.1
			C2.8,2.2,2.8,2.4,2.8,2.7z"/>
	</g>
</g>
</svg>
