<?xml version="1.0" encoding="utf-8"?>
<!-- Generator: Adobe Illustrator 24.0.2, SVG Export Plug-In . SVG Version: 6.00 Build 0)  -->
<svg version="1.1" id="Layer_1" xmlns="http://www.w3.org/2000/svg" xmlns:xlink="http://www.w3.org/1999/xlink" x="0px" y="0px"
	 viewBox="0 0 4 4" style="enable-background:new 0 0 4 4;" xml:space="preserve">
<style type="text/css">
	.st0{fill:#FFFFFF;}
	.st1{fill-rule:evenodd;clip-rule:evenodd;fill:#FFFFFF;}
</style>
<g>
	<path class="st0" d="M2,0.1c1,0,1.9,0.9,1.9,1.9c0,1-0.9,1.9-1.9,1.9C0.9,3.9,0.1,3,0.1,2C0.1,0.9,0.9,0.1,2,0.1 M2,0
		C0.9,0,0,0.9,0,2s0.9,2,2,2c1.1,0,2-0.9,2-2S3.1,0,2,0L2,0z"/>
</g>
<g>
	<path class="st1" d="M0.8,2.8c0.2,0,0.4,0,0.5-0.1c0.1,0,0.1-0.1,0.2-0.1c-0.1,0-0.2,0-0.2-0.1C1.3,2.4,1.2,2.4,1.1,2.2
		c0,0,0,0,0,0c0.1,0,0.1,0,0.2,0c0,0-0.1,0-0.1,0C1,2.1,1,1.9,0.9,1.7c0,0,0,0,0,0c0.1,0,0.1,0,0.2,0.1c0,0-0.1-0.1-0.1-0.1
		C0.9,1.5,0.9,1.3,1,1.1c0,0,0,0,0,0c0.2,0.3,0.5,0.4,0.9,0.5c0,0,0.1,0,0.1,0c0,0,0,0,0,0c0-0.2,0.1-0.4,0.2-0.5
		C2.5,1,2.7,1,2.9,1.1c0,0,0,0,0.1,0c0.1,0,0.2-0.1,0.3-0.1c0,0,0,0,0,0c0,0.1-0.1,0.2-0.2,0.3c0.1,0,0.2,0,0.3-0.1c0,0,0,0,0,0
		C3.2,1.4,3.1,1.4,3.1,1.5c0,0,0,0,0,0c0,0.4-0.1,0.7-0.3,1C2.5,2.8,2.2,2.9,1.9,3C1.5,3,1.2,3,0.8,2.8C0.9,2.8,0.9,2.8,0.8,2.8z"/>
</g>
</svg>
